<svg xmlns="http://www.w3.org/2000/svg" viewBox="0 0 1600 900" role="img" aria-labelledby="title desc">
  <title id="title">Hero background for a dog supplies store</title>
  <desc id="desc">An abstract illustration with warm gradients and playful paw prints.</desc>
  <defs>
    <linearGradient id="bgGradient" x1="0" y1="0" x2="1" y2="1">
      <stop offset="0%" stop-color="#fbbf24" />
      <stop offset="45%" stop-color="#f97316" />
      <stop offset="100%" stop-color="#ea580c" />
    </linearGradient>
    <linearGradient id="waveGradient" x1="0" y1="0" x2="0" y2="1">
      <stop offset="0%" stop-color="#fef3c7" stop-opacity="0.65" />
      <stop offset="100%" stop-color="#fef3c7" stop-opacity="0.05" />
    </linearGradient>
  </defs>
  <rect width="1600" height="900" fill="url(#bgGradient)" />
  <g opacity="0.6">
    <path d="M0 720 C300 640 480 660 700 760 C950 870 1230 880 1600 760 L1600 900 L0 900 Z" fill="url(#waveGradient)" />
    <path d="M0 640 C240 560 460 560 720 640 C990 720 1320 690 1600 560 L1600 900 L0 900 Z" fill="url(#waveGradient)" opacity="0.7" />
  </g>
  <g fill="#fef3c7" opacity="0.75">
    <circle cx="350" cy="260" r="70" />
    <circle cx="290" cy="190" r="35" />
    <circle cx="410" cy="190" r="35" />
    <circle cx="250" cy="270" r="28" />
    <circle cx="450" cy="270" r="28" />
  </g>
  <g fill="#fef3c7" opacity="0.55">
    <circle cx="1220" cy="480" r="60" />
    <circle cx="1170" cy="420" r="30" />
    <circle cx="1280" cy="410" r="32" />
    <circle cx="1160" cy="500" r="24" />
    <circle cx="1300" cy="500" r="24" />
  </g>
</svg>
